<?xml version="1.0" encoding="utf-8"?>
<!-- Generator: Adobe Illustrator 24.0.1, SVG Export Plug-In . SVG Version: 6.00 Build 0)  -->
<svg version="1.1" id="Camada_1" xmlns="http://www.w3.org/2000/svg" xmlns:xlink="http://www.w3.org/1999/xlink" x="0px" y="0px"
	 viewBox="0 0 31.1 46.4" style="enable-background:new 0 0 31.1 46.4;" xml:space="preserve">
<style type="text/css">
	.st0{fill-rule:evenodd;clip-rule:evenodd;fill:#CCCCCC;}
</style>
<path class="st0" d="M23.4,22.8c0,0.3-0.1,0.5-0.3,0.7c-0.2,0.2-0.4,0.4-0.6,0.5c-0.5,0.3-0.9,0.5-1.4,0.6c-0.9,0.3-1.9,0.6-2.9,1
	c-1.1,0.4-2.1,0.7-2.9,1c-1.1,0.4-2.1,0.7-3.1,1c-0.7,0.3-1.4,0.7-2.1,1.2c-0.6,0.5-1.1,1.1-1.5,1.8c-0.4,0.7-0.7,1.6-0.7,2.7
	c0,2.2,0.5,3.8,1.6,4.8c1.1,1.1,3.1,1.6,6.1,1.6c3.1,0,5.1-0.6,6.2-1.7c1.1-1.1,1.6-2.7,1.6-4.8L23.4,22.8L23.4,22.8z M15.5,0
	c5.3,0,9.3,1,11.8,3c2.5,2,3.8,4.5,3.8,7.5V36c0,1-0.2,2.2-0.6,3.4c-0.4,1.2-1.1,2.4-2.3,3.4c-1.1,1-2.7,1.9-4.7,2.6
	c-2,0.7-4.6,1-7.9,1c-3.2,0-5.8-0.4-7.9-1c-2-0.7-3.6-1.5-4.7-2.6c-1.1-0.9-1.9-2.1-2.3-3.4C0.2,38.1,0,37,0,36v-4.1
	c0-2.2,0.6-4.2,1.8-5.9c1.2-1.8,2.9-3,5.1-3.8c1.1-0.4,2.3-0.7,3.8-1.2c1.4-0.5,2.7-0.9,4-1.3c1.3-0.4,2.5-0.8,3.4-1.2
	c0.6-0.2,1.2-0.4,1.8-0.6l1-0.5c0.4-0.2,0.8-0.5,1.1-0.9c0.4-0.4,0.7-0.9,1-1.4c0.3-0.6,0.4-1.2,0.4-1.8v-1.7c0-0.6-0.1-1.2-0.4-1.8
	c-0.2-0.6-0.7-1.2-1.3-1.7c-0.6-0.5-1.4-0.9-2.4-1.2c-1-0.3-2.3-0.5-3.8-0.5c-3.1,0-5.1,0.6-6.2,1.8c-0.9,1-1.5,2.3-1.6,3.8
	c0,0.3-0.3,0.5-0.6,0.5l-6.7,0.1c-0.2,0-0.3-0.1-0.4-0.2c-0.1-0.1-0.2-0.3-0.2-0.4v-1.5c0-1.4,0.3-2.8,0.9-4.1
	C1.5,5.1,2.5,4,3.7,3.1C5,2.2,6.6,1.4,8.6,0.9C10.5,0.3,12.8,0,15.5,0L15.5,0z"/>
</svg>
